<?xml version="1.0" standalone="no"?>
<!DOCTYPE svg PUBLIC "-//W3C//DTD SVG 20010904//EN"
 "http://www.w3.org/TR/2001/REC-SVG-20010904/DTD/svg10.dtd">
<svg version="1.0" xmlns="http://www.w3.org/2000/svg"
 width="500.000000pt" height="500.000000pt" viewBox="0 0 500.000000 500.000000"
 preserveAspectRatio="xMidYMid meet">
<metadata>
Created by potrace 1.14, written by Peter Selinger 2001-2017
</metadata>
<g transform="translate(0.000000,500.000000) scale(0.100000,-0.100000)"
fill="#000000" stroke="none">
<path d="M2195 3253 c-23 -53 -10 -67 72 -73 l67 -5 43 -145 c24 -80 46 -155
49 -168 2 -13 11 -42 18 -65 47 -139 58 -190 47 -214 -19 -41 -13 -89 13 -120
23 -27 28 -28 113 -27 48 0 133 4 188 8 79 6 241 13 342 16 22 0 36 39 21 57
-11 14 -35 15 -188 9 -96 -3 -191 -8 -210 -10 -99 -12 -183 -16 -201 -11 -24
8 -26 45 -1 46 25 1 61 5 112 12 49 7 275 35 330 41 122 14 151 19 164 30 10
7 30 83 56 216 22 113 40 212 40 221 0 40 -15 42 -424 41 l-394 0 -10 26 c-6
15 -16 45 -23 67 -19 63 -22 65 -124 65 -79 0 -94 -3 -100 -17z m505 -306 l0
-72 -85 0 c-46 0 -88 5 -94 10 -9 9 -41 109 -41 127 0 4 50 8 110 8 l110 0 0
-73z m230 4 c0 -46 -4 -70 -12 -73 -7 -2 -49 -4 -93 -4 l-80 1 -2 73 -1 72 94
0 94 0 0 -69z m234 52 c-2 -10 -8 -43 -14 -73 l-10 -55 -83 0 -82 0 -2 73 -3
72 99 0 c89 0 99 -2 95 -17z m-464 -258 c0 -47 -1 -85 -2 -85 -2 -1 -28 -3
-59 -6 l-56 -6 -11 43 c-7 24 -18 65 -26 92 l-15 47 84 0 85 0 0 -85z m230 16
c0 -50 -4 -70 -14 -74 -8 -3 -50 -9 -94 -12 l-80 -7 0 73 c1 41 3 77 5 82 2 4
44 7 94 7 l89 0 0 -69z m196 39 c-3 -16 -9 -43 -12 -59 -5 -27 -10 -31 -52
-36 -26 -3 -57 -7 -69 -9 -22 -3 -23 0 -23 65 l0 69 81 0 81 0 -6 -30z"/>
<path d="M1954 3137 c-40 -23 -71 -53 -88 -84 -8 -17 -25 -34 -36 -38 -15 -5
-20 -15 -20 -39 0 -17 4 -36 8 -41 22 -25 164 -410 176 -478 4 -21 13 -40 21
-43 8 -3 39 6 70 20 48 22 55 23 55 8 1 -42 16 -46 65 -17 59 34 127 94 119
106 -10 16 -6 234 6 283 14 63 6 71 -60 57 -74 -16 -83 -15 -70 8 5 11 10 35
10 54 0 49 -35 82 -114 106 -94 29 -106 37 -106 71 0 35 -9 42 -36 27z m48
-87 c17 -10 47 -21 67 -25 61 -11 110 -45 117 -79 6 -35 -6 -76 -29 -94 -12
-10 -11 -4 4 25 10 20 19 44 19 53 0 31 -31 59 -83 75 -93 29 -126 47 -134 72
l-8 24 -28 -21 c-15 -12 -27 -27 -27 -35 0 -7 -14 -25 -31 -40 -31 -26 -32
-26 -16 -63 76 -187 117 -295 113 -299 -3 -3 -8 3 -12 13 -3 10 -33 87 -66
171 l-61 152 30 28 c17 16 33 37 37 48 3 11 21 30 39 43 l32 22 3 -25 c2 -16
15 -33 34 -45z m-2 -81 c45 -24 53 -33 14 -19 -50 19 -50 18 -8 -77 26 -59 36
-63 58 -31 21 29 20 57 -1 80 -9 10 -11 18 -5 18 15 0 32 -33 32 -62 0 -20
-41 -78 -56 -78 -6 0 -84 166 -84 180 0 14 4 13 50 -11z m44 -62 c13 -10 16
-20 11 -36 -8 -25 -15 -20 -33 22 -13 30 -6 34 22 14z m266 -73 c-6 -14 -11
-66 -12 -116 -1 -49 -5 -91 -9 -94 -7 -4 -3 154 6 204 3 17 10 32 15 32 6 0 6
-10 0 -26z m-23 10 c-3 -3 -12 -4 -19 -1 -8 3 -5 6 6 6 11 1 17 -2 13 -5z
m-57 -14 c-14 -4 -34 -8 -45 -8 -16 0 -15 2 5 8 14 4 34 8 45 8 16 0 15 -2 -5
-8z m-28 -37 c11 -15 11 -16 -7 -9 -20 9 -44 9 -80 2 -11 -3 -28 -5 -37 -5
-10 -1 -18 -8 -18 -16 0 -8 -4 -15 -10 -15 -14 0 -12 17 3 27 44 28 131 38
149 16z m-35 -38 c-4 -8 -9 -49 -13 -91 -8 -84 -10 -83 -49 21 l-25 66 22 9
c37 14 71 12 65 -5z m25 -52 c-2 -24 -8 -43 -12 -43 -8 0 -8 5 5 64 9 40 13
29 7 -21z m-94 -73 c16 -41 30 -88 30 -105 1 -28 -59 131 -72 194 -7 31 -3 23
42 -89z m84 -15 c-2 -19 -6 -35 -8 -35 -2 0 -4 16 -4 35 0 19 4 35 8 35 4 0 6
-16 4 -35z m-178 -75 c16 -49 32 -90 36 -90 5 0 25 10 45 21 20 12 39 19 42
15 3 -3 -18 -17 -48 -30 l-53 -25 -23 81 c-13 44 -28 89 -34 99 -5 11 -6 19
-1 19 5 0 21 -40 36 -90z m296 26 c0 -40 -4 -48 -42 -79 -41 -33 -80 -57 -92
-57 -3 0 -6 32 -6 70 0 39 3 70 8 70 4 0 5 -30 4 -66 l-4 -65 43 27 c72 45 82
58 77 103 -2 23 0 41 4 41 5 0 8 -20 8 -44z"/>
<path d="M1559 3097 c-46 -31 -47 -33 -53 -98 -8 -80 -52 -251 -96 -371 l-32
-88 -22 28 c-75 91 -130 200 -204 405 l-46 129 -60 -6 c-33 -3 -63 -9 -67 -14
-4 -4 -19 -52 -33 -108 -14 -55 -32 -116 -40 -134 l-14 -35 -35 39 c-19 21
-52 74 -74 119 -74 155 -63 142 -108 141 -58 -2 -106 -11 -117 -22 -6 -6 5
-67 31 -168 45 -178 51 -221 56 -378 2 -60 7 -112 12 -117 10 -10 122 41 142
64 10 13 12 34 7 84 l-7 67 38 -37 c20 -21 41 -36 47 -34 10 3 47 83 85 180 8
20 18 37 22 37 3 0 37 -53 74 -117 37 -65 95 -160 128 -211 60 -94 63 -96 109
-77 13 5 15 2 11 -13 -12 -47 36 -33 124 36 45 36 51 46 63 100 13 57 16 61
63 87 27 14 50 25 52 23 1 -2 17 -41 36 -87 19 -46 40 -86 47 -89 15 -5 173
64 183 80 4 6 -4 30 -19 52 -74 117 -122 246 -157 420 -19 96 -25 111 -43 114
-11 2 -26 10 -32 18 -16 18 -16 18 -71 -19z m67 -12 c8 -8 21 -12 29 -9 11 4
15 -1 16 -17 0 -13 2 -31 4 -39 1 -8 8 -42 14 -75 26 -129 87 -286 152 -392
l21 -33 -74 -34 c-51 -24 -77 -31 -85 -24 -7 6 -13 14 -13 19 0 5 -11 33 -25
63 -14 30 -25 59 -25 63 0 5 -5 14 -11 20 -15 15 -129 -44 -136 -69 -3 -10 -9
-18 -14 -18 -5 0 -4 10 2 23 11 22 133 92 148 83 4 -3 23 -43 42 -90 19 -47
39 -86 46 -86 12 0 90 33 111 48 10 7 3 30 -36 108 -52 103 -92 217 -113 319
-6 33 -13 67 -14 75 -2 8 -4 23 -4 33 -1 10 -5 16 -10 13 -4 -3 -16 1 -26 8
-16 12 -23 11 -52 -8 -25 -16 -33 -28 -33 -51 -1 -55 -39 -216 -86 -356 -26
-77 -49 -138 -51 -135 -3 3 11 50 31 106 44 124 84 280 93 359 5 55 9 62 42
85 44 30 39 29 57 11z m-887 -82 c83 -180 148 -250 180 -195 6 9 11 12 11 7 0
-16 -22 -35 -41 -35 -32 0 -100 89 -150 197 -27 58 -49 108 -49 111 0 13 15
-13 49 -85z m-69 72 c-8 -2 -31 -6 -51 -10 l-37 -6 14 -46 c8 -25 14 -51 13
-57 -1 -6 -7 9 -15 33 -7 24 -16 52 -19 62 -7 20 10 27 70 27 22 0 33 -2 25
-3z m429 -18 c5 -12 27 -74 50 -137 23 -63 58 -150 79 -192 21 -43 35 -78 31
-78 -11 0 -94 189 -135 307 -33 94 -42 112 -56 107 -10 -3 -18 -2 -18 3 0 20
41 11 49 -10z m-76 6 c-13 -2 -23 -7 -24 -11 -4 -40 -50 -204 -56 -199 -4 4
43 193 52 207 3 6 16 9 28 9 22 -2 22 -2 0 -6z m-384 -210 c11 -49 23 -113 26
-143 4 -30 8 -61 10 -67 3 -7 0 -13 -5 -13 -6 0 -10 17 -11 38 -1 49 -6 81
-29 180 -22 91 -22 92 -16 92 2 0 14 -39 25 -87z m417 -110 c79 -130 78 -129
68 -120 -5 5 -36 51 -69 104 -33 53 -64 97 -69 97 -4 1 -27 -48 -51 -108 -24
-59 -48 -113 -53 -118 -6 -6 -23 6 -48 36 -21 25 -43 46 -49 46 -6 0 -9 -19
-6 -47 2 -27 1 -46 -2 -43 -8 8 -14 111 -6 115 4 3 28 -18 53 -47 27 -28 51
-47 56 -42 4 5 27 56 50 114 48 121 49 122 59 115 5 -2 35 -48 67 -102z m528
85 c10 -44 26 -129 26 -133 0 -2 -15 -13 -34 -24 -42 -26 -69 -28 -62 -3 2 9
14 54 26 100 22 83 36 101 44 60z m-258 -258 c26 -36 40 -59 31 -51 -21 17
-87 106 -87 117 0 10 1 9 56 -66z m-646 -35 c0 -48 4 -75 11 -75 6 0 29 10 51
22 31 18 39 27 35 45 -2 13 0 23 4 23 5 0 9 -11 9 -25 0 -26 -21 -44 -82 -69
l-37 -16 -3 85 c-2 47 0 85 5 85 4 0 7 -34 7 -75z m586 -134 c2 -2 19 6 39 17
45 27 45 22 0 -12 l-35 -27 -65 101 c-37 56 -69 109 -72 118 -3 9 25 -30 62
-88 37 -58 69 -107 71 -109z m-481 169 c3 -5 1 -10 -4 -10 -6 0 -11 5 -11 10
0 6 2 10 4 10 3 0 8 -4 11 -10z m688 -84 c-5 -32 -15 -45 -66 -82 -33 -25 -61
-43 -63 -41 -2 1 -1 13 3 26 4 15 8 19 13 11 6 -9 21 -3 53 21 36 27 46 42 51
73 4 21 9 37 11 34 2 -2 2 -21 -2 -42z"/>
<path d="M1552 2728 c-13 -50 -11 -53 18 -38 13 7 19 17 16 27 -3 8 -6 23 -6
34 0 34 -17 20 -28 -23z"/>
<path d="M3878 3096 c-59 -56 -64 -71 -33 -112 l27 -35 -44 3 c-42 3 -43 2
-46 -29 -4 -36 10 -47 75 -58 l41 -6 10 -62 c8 -56 6 -272 -3 -287 -8 -12 12
-27 79 -59 119 -56 147 -53 141 13 -5 54 -16 140 -20 166 -3 14 -7 40 -10 57
-3 18 -12 61 -20 95 -27 121 -27 124 1 143 17 11 24 24 22 38 -2 18 -9 22 -35
19 -29 -2 -35 2 -54 40 -29 58 -67 108 -82 108 -7 0 -29 -15 -49 -34z m98 -58
c13 -26 24 -51 24 -55 -1 -4 -10 10 -22 32 -23 44 -47 75 -59 75 -4 0 -20 -16
-34 -35 l-27 -34 26 -34 c44 -58 33 -77 -39 -71 -46 4 -25 -8 39 -22 53 -12
59 -32 60 -228 l2 -158 39 -21 c22 -11 55 -26 74 -34 l34 -15 -6 76 c-4 41
-20 144 -37 228 -16 84 -30 160 -30 169 0 9 10 21 23 27 22 11 22 11 -5 11
-15 1 -30 5 -33 11 -4 6 6 7 27 3 45 -8 47 -11 18 -33 l-24 -18 33 -149 c19
-81 36 -182 38 -223 2 -41 6 -81 8 -88 10 -27 -26 -22 -99 14 l-76 38 6 113
c6 113 -8 247 -27 259 -5 3 -22 7 -37 10 -58 9 -72 15 -72 30 0 13 9 15 45 11
25 -2 48 0 51 4 6 10 -27 69 -38 69 -20 0 -5 38 29 72 43 44 51 41 89 -34z"/>
<path d="M3325 3086 c-7 -17 -10 -35 -7 -41 3 -5 26 -41 50 -78 102 -158 124
-256 109 -482 -2 -29 -1 -30 105 -61 117 -35 120 -34 133 25 10 45 91 129 133
137 18 4 32 11 32 16 0 18 -93 190 -105 194 -22 9 -85 -24 -85 -42 0 -10 12
-31 27 -46 l27 -28 -24 -18 c-14 -9 -29 -17 -34 -17 -5 0 -17 27 -28 60 -16
51 -17 66 -7 100 18 58 17 60 -20 61 -23 1 -41 9 -53 24 -24 30 -23 44 5 36
56 -17 122 -18 142 -2 20 15 20 15 -10 71 -16 31 -36 62 -43 68 -8 6 -53 12
-100 13 -52 1 -105 8 -132 18 -79 30 -100 28 -115 -8z m185 -38 c0 -4 -21 0
-47 8 -84 26 -113 29 -113 10 0 -15 26 -63 40 -76 14 -12 71 -113 66 -117 -2
-3 -10 6 -17 19 -6 12 -32 53 -57 90 -33 51 -43 73 -38 92 l6 24 80 -22 c44
-11 80 -24 80 -28z m178 -49 c28 -47 30 -54 16 -62 -10 -6 -38 -5 -73 2 -31 7
-67 15 -81 17 -13 3 -27 7 -29 10 -8 7 37 4 61 -5 13 -4 45 -11 71 -15 48 -7
49 -7 42 16 -4 13 -16 35 -27 51 -17 24 -25 27 -79 27 -32 0 -59 3 -59 8 0 4
28 6 62 6 l63 -1 33 -54z m-143 -92 c11 -23 30 -46 43 -52 12 -5 22 -13 22
-17 0 -4 -12 -2 -26 4 -24 11 -84 108 -67 108 5 -1 17 -20 28 -43z m87 -89
c-18 -18 -15 -59 14 -150 l26 -82 24 27 c13 15 35 32 48 37 29 11 26 31 -11
74 -13 15 -23 28 -23 30 0 2 13 9 29 14 29 10 30 10 71 -70 23 -44 40 -81 38
-82 -15 -14 -68 -35 -68 -27 0 5 14 14 31 20 l31 11 -38 70 c-25 46 -44 70
-56 70 -23 0 -23 -5 5 -43 28 -38 29 -56 3 -71 -30 -17 -52 -39 -66 -65 -11
-21 -14 -22 -22 -8 -15 27 -58 170 -58 193 0 46 12 86 23 75 8 -8 7 -15 -1
-23z m-138 -40 c16 -55 28 -198 17 -198 -3 0 -7 32 -8 71 -3 63 -13 121 -30
165 -3 8 -3 14 1 14 3 0 12 -24 20 -52z m252 -235 c-30 -32 -56 -83 -56 -108
0 -19 -5 -18 -122 16 l-68 20 0 49 c0 28 3 50 8 50 4 0 7 -21 7 -47 l0 -47 80
-23 c44 -12 81 -23 83 -23 1 0 2 6 2 13 0 28 76 144 88 133 2 -3 -8 -17 -22
-33z"/>
<path d="M2485 2365 c-54 -53 -11 -155 65 -155 41 0 90 47 90 87 0 27 -22 70
-44 85 -25 17 -87 8 -111 -17z"/>
<path d="M3017 2379 c-11 -6 -25 -27 -33 -45 -40 -96 96 -169 156 -84 54 76
-42 176 -123 129z"/>
<path d="M3300 2119 c-19 -21 -37 -46 -40 -55 -5 -15 -7 -15 -19 0 -10 12 -31
16 -77 16 -61 0 -66 -2 -104 -40 l-39 -39 0 -108 c1 -59 6 -114 11 -120 7 -9
39 -13 91 -13 74 0 83 2 109 27 l28 27 0 -27 c0 -26 2 -27 54 -27 33 0 58 5
63 13 4 6 8 96 8 200 l0 187 -25 -1 c-16 0 -38 -15 -60 -40z m-58 -136 c10 -9
18 -27 18 -41 0 -31 -67 -102 -96 -102 -19 0 -20 6 -20 80 l0 80 40 0 c23 0
47 -7 58 -17z"/>
<path d="M2762 2082 c-47 -3 -58 -8 -93 -44 l-39 -40 0 -107 c0 -70 4 -111 12
-119 8 -8 55 -12 144 -12 l132 0 33 38 33 37 -154 3 -154 3 79 79 c96 97 128
104 117 28 -4 -25 -8 -28 -41 -28 -28 0 -44 -7 -66 -30 l-29 -30 90 0 90 0 39
40 c34 35 39 45 40 92 2 82 -2 86 -97 90 -46 2 -107 2 -136 0z"/>
<path d="M3915 2082 c-19 -2 -46 -19 -71 -43 l-41 -40 2 -107 c0 -59 4 -113 9
-120 5 -8 46 -12 140 -12 l132 0 32 33 c18 18 32 36 32 40 0 4 -69 7 -152 7
l-153 0 80 80 c91 92 119 101 120 38 1 -38 1 -38 -40 -38 -33 0 -47 -6 -70
-30 l-29 -30 90 0 90 0 39 40 c35 36 39 46 42 99 2 40 -2 62 -11 70 -12 10
-179 19 -241 13z"/>
<path d="M2180 2039 l-40 -42 1 -106 c0 -58 5 -112 11 -118 13 -16 94 -17 104
-2 3 6 7 51 7 100 1 79 3 91 24 110 21 20 23 21 29 4 4 -9 7 -63 8 -119 1 -95
2 -101 22 -104 14 -2 31 9 51 31 27 31 29 39 27 100 -2 57 1 68 21 87 32 30
37 16 38 -111 1 -105 1 -109 23 -109 13 0 37 17 61 43 l39 42 -1 105 c-1 58
-5 111 -9 118 -4 7 -27 12 -51 12 -37 0 -48 -5 -76 -35 -37 -39 -49 -44 -44
-17 10 61 -64 72 -119 17 -40 -40 -43 -41 -43 -17 0 43 -4 52 -23 52 -11 0
-38 -19 -60 -41z"/>
<path d="M3451 2038 l-41 -43 0 -105 c0 -69 4 -110 12 -118 8 -8 59 -12 164
-12 l153 0 20 26 c35 45 16 54 -113 54 l-111 0 0 120 c0 116 0 120 -21 120
-12 0 -39 -18 -63 -42z"/>
<path d="M4220 2044 l-31 -36 64 -67 c59 -61 64 -69 62 -106 -6 -78 38 -100
90 -45 23 24 30 41 31 82 3 48 6 55 65 114 53 54 60 65 49 78 -23 28 -54 18
-105 -34 l-49 -49 -50 49 c-29 29 -60 50 -72 50 -13 0 -36 -16 -54 -36z"/>
</g>
</svg>
